<svg width="40" height="40" viewBox="0 0 40 40" fill="none" xmlns="http://www.w3.org/2000/svg">
<rect y="0.0400391" width="40" height="39" rx="19.5" fill="#D4D4D4"/>
<path d="M27.9062 10.5518C25.6484 8.65332 22.1602 8.93848 20 11.1377C17.8398 8.93848 14.3516 8.64942 12.0937 10.5518C9.15625 13.0244 9.58593 17.0557 11.6797 19.1924L18.5312 26.1729C18.9219 26.5713 19.4453 26.7939 20 26.7939C20.5586 26.7939 21.0781 26.5752 21.4687 26.1768L28.3203 19.1963C30.4102 17.0596 30.8477 13.0283 27.9062 10.5518ZM26.9844 17.876L20.1328 24.8564C20.0391 24.9502 19.9609 24.9502 19.8672 24.8564L13.0156 17.876C11.5898 16.4229 11.3008 13.6729 13.3008 11.9893C14.8203 10.7119 17.1641 10.9033 18.6328 12.3994L20 13.7939L21.3672 12.3994C22.8437 10.8955 25.1875 10.7119 26.6992 11.9854C28.6953 13.6689 28.3984 16.4346 26.9844 17.876Z" fill="#FF0000"/>
</svg>
