<svg width="45" height="41" viewBox="0 0 45 41" fill="none" xmlns="http://www.w3.org/2000/svg">
<g clip-path="url(#clip0_1_45)">
<g clip-path="url(#clip1_1_45)">
<g clip-path="url(#clip2_1_45)">
<path d="M7.32255 35.5985C7.17044 35.5965 7.02515 35.5351 6.91758 35.4276C6.81002 35.32 6.74867 35.1747 6.7466 35.0226V27.4343C6.7466 27.2814 6.80734 27.1348 6.91544 27.0267C7.02354 26.9186 7.17017 26.8579 7.32305 26.8579C7.47593 26.8579 7.62255 26.9186 7.73065 27.0267C7.83876 27.1348 7.89949 27.2814 7.89949 27.4343V34.9746C7.90759 35.0545 7.8986 35.1353 7.87312 35.2115C7.84764 35.2877 7.80625 35.3576 7.75169 35.4166C7.69714 35.4756 7.63066 35.5224 7.55668 35.5537C7.48269 35.5851 7.40288 35.6004 7.32255 35.5985ZM40.7083 37.0804V32.7878C40.7062 32.6357 40.6449 32.4904 40.5373 32.3828C40.4297 32.2753 40.2844 32.2139 40.1323 32.2119C39.983 32.2221 39.8424 32.2861 39.7365 32.392C39.6306 32.4978 39.5667 32.6384 39.5564 32.7878V37.0804C39.5576 37.3646 39.5025 37.6463 39.3943 37.9091C39.286 38.1719 39.1268 38.4107 38.9259 38.6117C38.7249 38.8126 38.4861 38.9718 38.2233 39.08C37.9605 39.1883 37.6788 39.2434 37.3946 39.2422H4.7338C4.44958 39.2434 4.16793 39.1883 3.90511 39.08C3.6423 38.9718 3.40351 38.8126 3.20253 38.6117C3.00155 38.4107 2.84236 38.1719 2.73415 37.9091C2.62593 37.6463 2.57082 37.3646 2.57201 37.0804V12.4888C2.57096 12.2047 2.62616 11.9231 2.73443 11.6604C2.84271 11.3977 3.00192 11.159 3.20289 10.9582C3.40385 10.7573 3.64259 10.5982 3.90535 10.49C4.1681 10.3819 4.44966 10.3268 4.7338 10.328H37.3936C37.6778 10.3268 37.9595 10.3819 38.2223 10.4901C38.4851 10.5984 38.7239 10.7575 38.9249 10.9585C39.1258 11.1595 39.285 11.3983 39.3933 11.6611C39.5015 11.9239 39.5566 12.2056 39.5554 12.4898V16.4894C39.5575 16.6415 39.6188 16.7868 39.7264 16.8944C39.8339 17.0019 39.9792 17.0633 40.1313 17.0653C40.2807 17.0551 40.4213 16.9911 40.5272 16.8852C40.633 16.7794 40.697 16.6388 40.7073 16.4894V12.4898C40.7046 11.599 40.3496 10.7455 39.7197 10.1157C39.0899 9.48579 38.2364 9.13076 37.3456 9.12813H4.7338C3.84322 9.13076 2.98984 9.48565 2.36001 10.1153C1.73017 10.7449 1.37503 11.5982 1.37213 12.4888V37.1284C1.37477 38.0191 1.72979 38.8727 2.35966 39.5025C2.98952 40.1324 3.84304 40.4874 4.7338 40.4901H37.3936C38.2822 40.4678 39.1267 40.0985 39.7463 39.4612C40.3658 38.8239 40.7112 37.9692 40.7083 37.0804ZM44.5979 25.4085V24.1087C44.5926 22.8108 44.0747 21.5677 43.157 20.65C42.2393 19.7323 40.9962 19.2144 39.6984 19.2091H30.4293C29.1315 19.2144 27.8883 19.7323 26.9706 20.65C26.0529 21.5677 25.535 22.8108 25.5298 24.1087V25.4085C25.535 26.7063 26.0529 27.9495 26.9706 28.8672C27.8883 29.7849 29.1315 30.3028 30.4293 30.308H39.6984C40.9962 30.3028 42.2393 29.7849 43.157 28.8672C44.0747 27.9495 44.5926 26.7063 44.5979 25.4085ZM39.6984 20.409C40.6771 20.4171 41.6134 20.8095 42.3055 21.5016C42.9975 22.1936 43.3899 23.13 43.398 24.1087V25.4085C43.3899 26.3872 42.9975 27.3235 42.3055 28.0156C41.6134 28.7077 40.6771 29.1001 39.6984 29.1082H30.4293C29.4506 29.1001 28.5143 28.7077 27.8222 28.0156C27.1301 27.3235 26.7377 26.3872 26.7296 25.4085V24.1087C26.7377 23.13 27.1301 22.1936 27.8222 21.5016C28.5143 20.8095 29.4506 20.4171 30.4293 20.409H39.6984ZM36.3857 7.06233C36.5312 6.99109 36.6429 6.86556 36.6968 6.71277C36.7506 6.55998 36.7423 6.39214 36.6737 6.24541L34.1279 0.81794C34.0973 0.747706 34.0511 0.685318 33.9929 0.635447C33.9348 0.585577 33.866 0.549518 33.792 0.529969C33.6356 0.482035 33.4684 0.482035 33.312 0.529969L22.1211 5.81345C21.9881 5.89083 21.8891 6.0155 21.8438 6.16261C21.7986 6.30973 21.8105 6.46848 21.8771 6.60724C21.9437 6.74599 22.0601 6.85455 22.2032 6.91128C22.3463 6.96801 22.5055 6.96875 22.649 6.91334L33.263 1.91383L35.5688 6.81335C35.6215 6.90914 35.6975 6.99011 35.7898 7.04882C35.8821 7.10753 35.9876 7.14209 36.0967 7.14932C36.2407 7.11032 36.3367 7.11032 36.3857 7.06233Z" fill="#F42C37" stroke="#F42C37" stroke-width="0.799922"/>
<path d="M40.1355 24.5986H37.8695H40.1355Z" fill="#F42C37"/>
<path d="M40.1355 24.5986H37.8695" stroke="#F42C37" stroke-width="2.59975" stroke-linecap="round"/>
</g>
</g>
</g>
<defs>
<clipPath id="clip0_1_45">
<rect width="44.03" height="40.8" fill="white" transform="translate(0.969971 0.0899658)"/>
</clipPath>
<clipPath id="clip1_1_45">
<rect width="44.03" height="40.8" fill="white" transform="translate(0.969971 0.0899658)"/>
</clipPath>
<clipPath id="clip2_1_45">
<rect width="44.0257" height="40.8" fill="white" transform="translate(0.972137 0.0899658)"/>
</clipPath>
</defs>
</svg>
