<svg width="70" height="41" viewBox="0 0 70 41" fill="none" xmlns="http://www.w3.org/2000/svg">
<g clip-path="url(#clip0_1_11)">
<g clip-path="url(#clip1_1_11)">
<g clip-path="url(#clip2_1_11)">
<path d="M69.4882 28.4L67.5841 18.1791C67.1292 15.7928 65.8562 13.6399 63.9844 12.0913C62.1127 10.5427 59.7595 9.69542 57.3302 9.69537H47.9789C47.6743 7.16531 46.4552 4.83391 44.5511 3.14026C42.647 1.4466 40.1894 0.507553 37.6411 0.499971H13.762C12.3668 0.49325 10.9939 0.850329 9.77872 1.536C8.56356 2.22166 7.54811 3.21223 6.83251 4.41002C6.6896 4.66428 6.65127 4.96419 6.72565 5.24622C6.80003 5.52825 6.98127 5.77025 7.23099 5.92096C7.48071 6.07168 7.77929 6.11927 8.06348 6.05365C8.34768 5.98803 8.59518 5.81437 8.75355 5.56944C9.2706 4.70367 10.0046 3.98776 10.8829 3.4924C11.7613 2.99705 12.7536 2.73938 13.762 2.74485H37.6401C39.7885 2.74964 41.8489 3.59893 43.3766 5.10945C44.9043 6.61998 45.7769 8.67061 45.806 10.8188V33.0077H26.9564C26.6952 31.5432 25.9271 30.2172 24.7865 29.2621C23.646 28.307 22.2057 27.7836 20.7181 27.7836C19.2304 27.7836 17.7902 28.307 16.6496 29.2621C15.5091 30.2172 14.7409 31.5432 14.4797 33.0077H13.761C12.8047 33.0085 11.8628 32.7744 11.0181 32.326C10.1734 31.8776 9.45168 31.2286 8.91647 30.436C8.74933 30.1892 8.491 30.0189 8.19831 29.9626C7.90562 29.9063 7.60254 29.9685 7.35575 30.1356C7.10895 30.3028 6.93866 30.5611 6.88234 30.8538C6.82601 31.1465 6.88826 31.4496 7.0554 31.6964C7.79617 32.793 8.79499 33.6909 9.96405 34.3112C11.1331 34.9315 12.4366 35.2551 13.76 35.2536H14.4727C14.7323 36.7217 15.5008 38.0514 16.6431 39.0095C17.7854 39.9675 19.2287 40.4926 20.7196 40.4926C22.2104 40.4926 23.6537 39.9675 24.796 39.0095C25.9384 38.0514 26.7068 36.7217 26.9664 35.2536H45.893C46.1526 36.7217 46.921 38.0514 48.0634 39.0095C49.2057 39.9675 50.649 40.4926 52.1398 40.4926C53.6307 40.4926 55.074 39.9675 56.2163 39.0095C57.3586 38.0514 58.1271 36.7217 58.3867 35.2536H63.838C64.6878 35.2556 65.5275 35.0691 66.2966 34.7076C67.0658 34.3462 67.7452 33.8187 68.286 33.1632C68.8268 32.5077 69.2156 31.7404 69.4243 30.9166C69.6331 30.0928 69.6566 29.233 69.4932 28.399L69.4882 28.4ZM20.6966 38.2321C19.6085 38.2321 18.5651 37.7999 17.7957 37.0305C17.0263 36.2612 16.5941 35.2177 16.5941 34.1297C16.5941 33.0416 17.0263 31.9981 17.7957 31.2288C18.5651 30.4594 19.6085 30.0272 20.6966 30.0272C21.7846 30.0272 22.8281 30.4594 23.5974 31.2288C24.3668 31.9981 24.799 33.0416 24.799 34.1297C24.799 35.2177 24.3668 36.2612 23.5974 37.0305C22.8281 37.7999 21.7846 38.2321 20.6966 38.2321ZM52.1149 38.2321C51.0489 38.2316 50.0255 37.8143 49.2631 37.0693C48.5007 36.3243 48.0599 35.3107 48.0349 34.2451C48.0409 34.2073 48.0449 34.1693 48.0469 34.1311V33.8313C48.1053 33.0347 48.3953 32.2726 48.8811 31.6387C49.3669 31.0047 50.0274 30.5265 50.7813 30.2629C51.5353 29.9993 52.3498 29.9617 53.1248 30.1549C53.8998 30.348 54.6015 30.7634 55.1435 31.35C55.6856 31.9366 56.0444 32.6688 56.1759 33.4566C56.3074 34.2444 56.2058 35.0535 55.8836 35.7843C55.5614 36.5151 55.0327 37.1359 54.3624 37.5702C53.6921 38.0046 52.9095 38.2336 52.1109 38.2291L52.1149 38.2321ZM66.5486 31.7353C66.2185 32.1348 65.8038 32.4561 65.3346 32.6761C64.8654 32.8961 64.3532 33.0094 63.835 33.0077H58.3777C58.1086 31.5428 57.3351 30.2183 56.1915 29.264C55.0479 28.3097 53.6063 27.7859 52.1169 27.7833C50.6273 27.7839 49.1868 28.3155 48.0539 29.2826V11.9393H57.3302C59.2356 11.94 61.0811 12.6046 62.5495 13.8187C64.0179 15.0329 65.0175 16.7207 65.3762 18.5919L67.2813 28.8178C67.3822 29.328 67.3689 29.8543 67.2422 30.3587C67.1155 30.8632 66.8787 31.3333 66.5486 31.7353Z" fill="#F42C37"/>
<path d="M13.1054 13.4745C13.1054 13.3271 13.0764 13.1811 13.02 13.0449C12.9636 12.9088 12.8809 12.785 12.7766 12.6808C12.6724 12.5766 12.5487 12.4939 12.4125 12.4375C12.2763 12.3811 12.1304 12.3521 11.983 12.3521H1.13839C0.846626 12.3608 0.569734 12.4828 0.366439 12.6922C0.163144 12.9017 0.0494385 13.1821 0.0494385 13.474C0.0494385 13.7659 0.163144 14.0463 0.366439 14.2557C0.569734 14.4652 0.846626 14.5872 1.13839 14.5959H11.984C12.2813 14.5957 12.5664 14.4774 12.7766 14.2672C12.9869 14.0569 13.1051 13.7718 13.1054 13.4745Z" fill="#F42C37"/>
<path d="M13.1054 22.2771C13.1054 21.9794 12.9871 21.6939 12.7766 21.4834C12.5661 21.2729 12.2806 21.1547 11.9829 21.1547H3.98692C3.83677 21.1502 3.68725 21.1759 3.54721 21.2303C3.40717 21.2846 3.27947 21.3665 3.17168 21.4712C3.06388 21.5758 2.97819 21.701 2.91967 21.8393C2.86115 21.9777 2.83099 22.1264 2.83099 22.2766C2.83099 22.4268 2.86115 22.5755 2.91967 22.7139C2.97819 22.8522 3.06388 22.9774 3.17168 23.0821C3.27947 23.1867 3.40717 23.2686 3.54721 23.323C3.68725 23.3773 3.83677 23.403 3.98692 23.3986H11.9829C12.2804 23.3986 12.5658 23.2804 12.7763 23.0702C12.9867 22.8599 13.1051 22.5746 13.1054 22.2771Z" fill="#F42C37"/>
</g>
</g>
</g>
<defs>
<clipPath id="clip0_1_11">
<rect width="69.61" height="39.98" fill="white" transform="translate(0 0.5)"/>
</clipPath>
<clipPath id="clip1_1_11">
<rect width="69.61" height="39.98" fill="white" transform="translate(0 0.5)"/>
</clipPath>
<clipPath id="clip2_1_11">
<rect width="69.5782" height="39.98" fill="white" transform="translate(0.0159302 0.5)"/>
</clipPath>
</defs>
</svg>
