<svg width="50" height="41" viewBox="0 0 50 41" fill="none" xmlns="http://www.w3.org/2000/svg">
<g clip-path="url(#clip0_1_36)">
<g clip-path="url(#clip1_1_36)">
<g clip-path="url(#clip2_1_36)">
<path d="M48.307 33.4332C49.0662 32.533 49.4758 31.3896 49.461 30.2122C49.4758 29.0347 49.0662 27.8913 48.307 26.9912C47.5517 26.07 46.499 25.441 45.33 25.2122V25.1122C45.4017 24.0986 45.1397 23.0893 44.5841 22.2385C44.0286 21.3877 43.2098 20.7421 42.253 20.4002V17.9002C42.2888 15.609 41.8548 13.3349 40.9776 11.218C40.1005 9.10111 38.7988 7.18645 37.153 5.59217C35.5587 3.94631 33.644 2.64464 31.5271 1.76748C29.4103 0.89032 27.1361 0.456289 24.845 0.492168C22.5538 0.456289 20.2796 0.89032 18.1628 1.76748C16.0459 2.64464 14.1312 3.94631 12.537 5.59217C10.8911 7.18645 9.58943 9.10111 8.71227 11.218C7.83511 13.3349 7.40108 15.609 7.43695 17.9002V20.1122C6.52296 20.2632 5.69917 20.7524 5.12915 21.4827C4.55913 22.2129 4.28456 23.1308 4.35995 24.0542V25.2082C3.1895 25.4361 2.13525 26.0652 1.37895 26.9872C0.620653 27.889 0.212737 29.034 0.229955 30.2122C0.215098 31.3896 0.624757 32.533 1.38395 33.4332C2.14025 34.3551 3.1945 34.9842 4.36495 35.2122V36.3662C4.35405 36.9111 4.4549 37.4525 4.66128 37.9569C4.86767 38.4614 5.17522 38.9182 5.56495 39.2992C5.93083 39.6823 6.3713 39.9865 6.85923 40.1928C7.34716 40.3992 7.87219 40.5035 8.40195 40.4992H10.517C11.0467 40.5035 11.5717 40.3992 12.0597 40.1928C12.5476 39.9865 12.9881 39.6823 13.354 39.2992C13.7437 38.9182 14.0512 38.4614 14.2576 37.9569C14.464 37.4525 14.5649 36.9111 14.554 36.3662V24.0582C14.5649 23.5132 14.464 22.9719 14.2576 22.4674C14.0512 21.963 13.7437 21.5062 13.354 21.1252C12.9881 20.742 12.5476 20.4379 12.0597 20.2315C11.5717 20.0251 11.0467 19.9209 10.517 19.9252H9.46095V17.9062C9.4318 15.8822 9.81774 13.8737 10.595 12.0046C11.3722 10.1356 12.5242 8.44568 13.98 7.03917C15.3862 5.5837 17.0758 4.43181 18.9445 3.65459C20.8132 2.87736 22.8213 2.49128 24.845 2.52017C26.8688 2.49115 28.8771 2.87716 30.7459 3.65439C32.6148 4.43162 34.3046 5.58357 35.711 7.03917C37.1664 8.44545 38.3183 10.135 39.0955 12.0037C39.8728 13.8724 40.2588 15.8805 40.23 17.9042V19.9232C39.5548 19.9136 38.8852 20.0455 38.2641 20.3104C37.6431 20.5753 37.0843 20.9673 36.624 21.4612C36.1441 21.9398 35.7649 22.5097 35.509 23.1373C35.2531 23.7649 35.1256 24.4374 35.134 25.1152V35.3072C35.1256 35.9849 35.2531 36.6574 35.509 37.285C35.7649 37.9126 36.1441 38.4826 36.624 38.9612C37.0843 39.4552 37.6429 39.8474 38.264 40.1125C38.8851 40.3776 39.5548 40.5096 40.23 40.5002C40.9051 40.5097 41.5747 40.3778 42.1958 40.1129C42.8169 39.8481 43.3756 39.4561 43.836 38.9622C44.3159 38.4836 44.695 37.9136 44.9509 37.286C45.2068 36.6584 45.3343 35.9859 45.326 35.3082V35.2082C46.4959 34.9813 47.55 34.3536 48.307 33.4332ZM4.36495 33.0972C3.72858 32.9433 3.16715 32.5693 2.78006 32.0413C2.39297 31.5133 2.20519 30.8653 2.24995 30.2122C2.20519 29.559 2.39297 28.911 2.78006 28.383C3.16715 27.855 3.72858 27.481 4.36495 27.3272V33.0972ZM12.538 24.0592V36.3672C12.5439 36.6384 12.4912 36.9077 12.3833 37.1566C12.2754 37.4055 12.115 37.6281 11.913 37.8092C11.541 38.1755 11.041 38.3824 10.519 38.3862H8.40296C7.88093 38.3824 7.3809 38.1755 7.00895 37.8092C6.80696 37.6281 6.64652 37.4055 6.53864 37.1566C6.43076 36.9077 6.37799 36.6384 6.38395 36.3672V24.0582C6.37799 23.787 6.43076 23.5177 6.53864 23.2688C6.64652 23.0199 6.80696 22.7972 7.00895 22.6162C7.3809 22.2499 7.88093 22.0429 8.40296 22.0392H10.518C11.04 22.0429 11.54 22.2499 11.912 22.6162C12.1141 22.7971 12.2748 23.0197 12.3828 23.2686C12.4909 23.5175 12.5438 23.7879 12.538 24.0592ZM43.307 35.3092C43.3121 35.7089 43.2383 36.1057 43.0899 36.4768C42.9414 36.848 42.7213 37.1862 42.442 37.4722C42.1589 37.7723 41.8154 38.0089 41.434 38.1663C41.0527 38.3237 40.6423 38.3983 40.23 38.3852C39.8176 38.3983 39.4072 38.3237 39.0259 38.1663C38.6445 38.0089 38.301 37.7723 38.018 37.4722C37.7386 37.1862 37.5185 36.848 37.37 36.4768C37.2216 36.1057 37.1478 35.7089 37.153 35.3092V25.1162C37.1478 24.7165 37.2216 24.3197 37.37 23.9485C37.5185 23.5774 37.7386 23.2391 38.018 22.9532C38.3009 22.6528 38.6444 22.4161 39.0257 22.2585C39.4071 22.1009 39.8175 22.0262 40.23 22.0392C40.6423 22.026 41.0527 22.1006 41.434 22.258C41.8154 22.4154 42.1589 22.652 42.442 22.9522C42.7213 23.2381 42.9414 23.5764 43.0899 23.9475C43.2383 24.3187 43.3121 24.7155 43.307 25.1152V35.3092ZM45.33 33.0972V27.3282C45.9663 27.482 46.5278 27.856 46.9149 28.384C47.3019 28.912 47.4897 29.56 47.445 30.2132C47.4895 30.8662 47.3016 31.5139 46.9145 32.0417C46.5274 32.5695 45.9662 32.9434 45.33 33.0972Z" fill="#F42C37"/>
<path d="M31.0014 7.16408C29.0447 6.2036 26.8811 5.74108 24.7026 5.8176C22.5242 5.89411 20.3984 6.50729 18.5139 7.60269" stroke="#F42C37" stroke-width="2.20095" stroke-linecap="round"/>
</g>
</g>
</g>
<defs>
<clipPath id="clip0_1_36">
<rect width="49.23" height="40" fill="white" transform="translate(0.22998 0.5)"/>
</clipPath>
<clipPath id="clip1_1_36">
<rect width="49.23" height="40" fill="white" transform="translate(0.22998 0.5)"/>
</clipPath>
<clipPath id="clip2_1_36">
<rect width="49.231" height="40" fill="white" transform="translate(0.22998 0.500366)"/>
</clipPath>
</defs>
</svg>
