<svg width="49" height="51" viewBox="0 0 49 51" fill="none" xmlns="http://www.w3.org/2000/svg">
<g clip-path="url(#clip0_1_23)">
<g clip-path="url(#clip1_1_23)">
<g clip-path="url(#clip2_1_23)">
<path d="M47.8506 27.4839L46.9746 26.2759C46.7721 25.9987 46.6622 25.6647 46.6606 25.3214C46.6589 24.9781 46.7657 24.6431 46.9656 24.364L47.8206 23.145C48.1566 22.6701 48.3879 22.1292 48.4991 21.5582C48.6103 20.9872 48.5989 20.399 48.4657 19.8327C48.3325 19.2664 48.0805 18.7348 47.7264 18.2733C47.3723 17.8117 46.9241 17.4306 46.4116 17.1553L45.1027 16.4553C44.8004 16.2943 44.5562 16.0425 44.4046 15.7354C44.253 15.4282 44.2016 15.0813 44.2577 14.7434L44.5087 13.2744C44.606 12.7011 44.5802 12.1137 44.433 11.5511C44.2859 10.9886 44.0207 10.4638 43.6552 10.0115C43.2897 9.55926 42.8321 9.18994 42.313 8.92807C41.7938 8.6662 41.2248 8.51777 40.6439 8.49264L39.1529 8.43264C38.8106 8.41907 38.4813 8.29779 38.212 8.0861C37.9427 7.8744 37.747 7.58309 37.653 7.25369L37.221 5.83375C37.0584 5.27453 36.7789 4.75622 36.401 4.3131C36.0231 3.86997 35.5554 3.51213 35.0289 3.26324C34.5024 3.01435 33.929 2.88009 33.3468 2.86933C32.7645 2.85858 32.1866 2.97158 31.6512 3.20085L30.2823 3.78383C29.9674 3.91574 29.6193 3.94696 29.286 3.87319C28.9526 3.79943 28.6502 3.6243 28.4204 3.37185L27.4204 2.26389C27.0328 1.82996 26.5573 1.4835 26.0255 1.24751C25.4937 1.01153 24.9178 0.891445 24.336 0.895228C23.7542 0.899012 23.1799 1.02658 22.6512 1.26946C22.1225 1.51234 21.6515 1.86496 21.2696 2.30389L20.3027 3.43184C20.0757 3.68835 19.775 3.86854 19.4418 3.94782C19.1085 4.02711 18.759 4.00161 18.4408 3.87482L17.0608 3.31185C16.5656 3.10888 16.036 3.00296 15.5009 2.99986C14.6017 3.0008 13.7277 3.29673 13.013 3.84224C12.2982 4.38775 11.7822 5.1527 11.544 6.01974L11.151 7.45868C11.0602 7.78982 10.8673 8.08394 10.5999 8.29933C10.3325 8.51471 10.004 8.64042 9.66111 8.65863L8.18117 8.74963C7.60069 8.78263 7.03388 8.93872 6.51834 9.20754C6.00281 9.47635 5.55034 9.85174 5.19098 10.3088C4.83161 10.7658 4.57357 11.2941 4.43398 11.8585C4.29439 12.4229 4.27644 13.0106 4.38132 13.5824L4.65331 15.0424C4.71622 15.38 4.67127 15.7289 4.52481 16.0396C4.37836 16.3503 4.13784 16.607 3.83734 16.7733L2.5374 17.4983C2.02904 17.7812 1.58661 18.1688 1.23941 18.6356C0.892205 19.1024 0.648164 19.6377 0.523455 20.2059C0.398746 20.7741 0.396216 21.3624 0.516033 21.9317C0.635849 22.5009 0.875276 23.0383 1.21845 23.508L2.09441 24.708C2.29694 24.9852 2.40684 25.3192 2.40846 25.6625C2.41007 26.0058 2.30332 26.3408 2.10341 26.6199L1.24745 27.8389C0.911597 28.3138 0.680457 28.8547 0.569325 29.4257C0.458193 29.9967 0.469604 30.5848 0.602804 31.1511C0.736003 31.7173 0.987952 32.2489 1.34198 32.7105C1.696 33.172 2.14402 33.5532 2.65639 33.8286L3.96534 34.5286C4.26777 34.6894 4.51203 34.9412 4.66364 35.2484C4.81526 35.5556 4.86656 35.9026 4.8103 36.2405L4.55931 37.7095C4.46165 38.2838 4.4875 38.8723 4.63515 39.4359C4.7828 39.9994 5.04886 40.5251 5.4156 40.9777C5.78234 41.4304 6.24134 41.7996 6.76201 42.061C7.28268 42.3223 7.85306 42.4697 8.43516 42.4933L9.9261 42.5533C10.2683 42.5666 10.5976 42.6877 10.8669 42.8992C11.1363 43.1107 11.3319 43.4019 11.426 43.7312L11.838 45.1612C12.0007 45.7201 12.2801 46.2382 12.6579 46.6811C13.0356 47.124 13.5031 47.4817 14.0294 47.7305C14.5557 47.9793 15.1289 48.1135 15.7109 48.1243C16.2929 48.1351 16.8706 48.0222 17.4058 47.7931L18.7737 47.2091C19.089 47.0775 19.4371 47.0466 19.7706 47.1205C20.1041 47.1944 20.4066 47.3696 20.6367 47.6221L21.6366 48.728C22.0242 49.1624 22.4999 49.5093 23.032 49.7456C23.564 49.9819 24.1404 50.1022 24.7225 50.0984C25.3047 50.0946 25.8794 49.9669 26.4084 49.7237C26.9374 49.4805 27.4085 49.1274 27.7904 48.688L28.7653 47.5601C28.9926 47.3036 29.2934 47.1234 29.6268 47.0442C29.9602 46.9649 30.3099 46.9904 30.6283 47.1171L32.0072 47.6811C32.5029 47.8836 33.0327 47.9895 33.5681 47.993C34.4672 47.9924 35.3413 47.6965 36.0559 47.151C36.7706 46.6054 37.2863 45.8403 37.524 44.9732L37.917 43.5332C38.0086 43.2023 38.2018 42.9085 38.4692 42.6932C38.7367 42.4779 39.0651 42.352 39.4079 42.3333L40.8979 42.2433C41.4782 42.2103 42.0449 42.0542 42.5604 41.7854C43.0758 41.5167 43.5283 41.1414 43.8876 40.6844C44.247 40.2275 44.505 39.6994 44.6447 39.1351C44.7844 38.5708 44.8024 37.9833 44.6977 37.4115L44.4257 35.9515C44.3628 35.6139 44.4077 35.265 44.5542 34.9543C44.7007 34.6436 44.9412 34.3869 45.2417 34.2206L46.5416 33.4946C47.0507 33.2125 47.4939 32.8251 47.8416 32.3584C48.1894 31.8916 48.4338 31.3562 48.5586 30.7877C48.6833 30.2192 48.6856 29.6306 48.5653 29.0611C48.4449 28.4916 48.2047 27.9543 47.8606 27.4849L47.8506 27.4839ZM46.1396 30.2518C46.0908 30.4782 45.9942 30.6916 45.8562 30.8776C45.7182 31.0637 45.5421 31.2182 45.3397 31.3307L44.0397 32.0557C43.288 32.4713 42.6858 33.1126 42.3181 33.889C41.9505 34.6653 41.836 35.5376 41.9908 36.3825L42.2628 37.8425C42.3054 38.0713 42.2987 38.3065 42.2431 38.5325C42.1875 38.7585 42.0843 38.9701 41.9405 39.153C41.7966 39.336 41.6153 39.4861 41.4088 39.5935C41.2023 39.7008 40.9753 39.7628 40.7429 39.7754L39.2629 39.8664C38.4048 39.9145 37.5835 40.231 36.9151 40.7713C36.2467 41.3116 35.765 42.0483 35.5381 42.8773L35.1451 44.3072C35.0507 44.654 34.8449 44.9601 34.5594 45.1784C34.2739 45.3967 33.9245 45.515 33.5651 45.5151C33.3511 45.5153 33.139 45.4746 32.9402 45.3951L31.5602 44.8312C31.0651 44.628 30.5355 44.5217 30.0003 44.5182C29.413 44.5186 28.8326 44.6445 28.298 44.8875C27.7634 45.1305 27.2869 45.485 26.9004 45.9271L25.9235 47.0461C25.7702 47.2243 25.58 47.3669 25.366 47.4642C25.1521 47.5614 24.9195 47.6108 24.6845 47.6091C24.4545 47.6113 24.2268 47.564 24.0168 47.4703C23.8068 47.3766 23.6195 47.2387 23.4676 47.0661L22.4676 45.9581C22.0821 45.5294 21.6109 45.1864 21.0845 44.9513C20.5581 44.7161 19.9882 44.5942 19.4117 44.5932C18.8543 44.5912 18.3025 44.7042 17.7908 44.9252L16.4218 45.5081C16.2189 45.5961 16 45.6411 15.7789 45.6401C15.4249 45.6392 15.0808 45.5239 14.7977 45.3115C14.5146 45.099 14.3077 44.8008 14.2079 44.4612L13.7959 43.0312C13.5557 42.2064 13.0632 41.4774 12.3877 40.9466C11.7121 40.4158 10.8874 40.1097 10.0291 40.0714L8.53915 40.0114C8.30748 40.005 8.08 39.948 7.8727 39.8443C7.66541 39.7407 7.48331 39.5929 7.3392 39.4114C7.19161 39.2323 7.0846 39.0234 7.02556 38.7989C6.96652 38.5745 6.95685 38.34 6.99722 38.1114L7.24821 36.6425C7.39218 35.7946 7.26545 34.9229 6.88599 34.151C6.50654 33.3792 5.89365 32.7465 5.13429 32.3427L3.82634 31.6427C3.6196 31.5351 3.43869 31.3838 3.29608 31.1994C3.15348 31.015 3.05259 30.8019 3.00038 30.5747C2.94427 30.3492 2.93865 30.114 2.98394 29.886C3.02923 29.658 3.1243 29.4428 3.26237 29.2558L4.11833 28.0369C4.6157 27.3353 4.87951 26.4949 4.87233 25.635C4.86515 24.775 4.58735 23.9392 4.07833 23.246L3.20237 22.0461C3.06291 21.8597 2.96623 21.6449 2.91922 21.417C2.87221 21.189 2.87602 20.9535 2.93038 20.7271C2.98017 20.5005 3.07784 20.2872 3.21685 20.1015C3.35586 19.9157 3.53299 19.7619 3.73635 19.6502L5.03629 18.9252C5.7875 18.5085 6.38884 17.8664 6.75541 17.0895C7.12197 16.3126 7.23524 15.4401 7.07921 14.5954L6.81722 13.1465C6.7729 12.918 6.77864 12.6827 6.83406 12.4567C6.88947 12.2308 6.99324 12.0195 7.13821 11.8375C7.28178 11.6536 7.46326 11.5028 7.67032 11.3953C7.87737 11.2878 8.10515 11.2261 8.33816 11.2145L9.8181 11.1235C10.6767 11.0735 11.498 10.7552 12.1661 10.2136C12.8342 9.67201 13.3154 8.93435 13.542 8.10465L13.9349 6.66571C14.0291 6.31873 14.2348 6.01237 14.5203 5.79389C14.8059 5.57541 15.1553 5.45694 15.5149 5.45676C15.729 5.45738 15.941 5.49843 16.1398 5.57776L17.5198 6.14073C18.015 6.34371 18.5446 6.44962 19.0797 6.45272C19.667 6.45238 20.2474 6.32649 20.782 6.08349C21.3167 5.84049 21.7932 5.486 22.1796 5.04378L23.1566 3.92682C23.3088 3.7513 23.4966 3.61018 23.7075 3.51285C23.9184 3.41552 24.1477 3.3642 24.38 3.36231C24.6123 3.36042 24.8424 3.40799 25.0549 3.50188C25.2674 3.59576 25.4574 3.7338 25.6125 3.90682L26.6124 5.01278C26.9982 5.44275 27.47 5.78681 27.9973 6.02265C28.5246 6.25848 29.0957 6.38082 29.6733 6.38172C30.2307 6.38333 30.7824 6.27033 31.2942 6.04974L32.6632 5.46676C32.8661 5.37897 33.0851 5.33436 33.3062 5.33577C33.6599 5.33626 34.004 5.45114 34.2872 5.66325C34.5703 5.87536 34.7772 6.17334 34.8771 6.51272L35.2891 7.94366C35.5295 8.76833 36.0221 9.49707 36.6976 10.0277C37.3731 10.5583 38.1978 10.8642 39.0559 10.9025L40.5459 10.9635C40.7785 10.9711 41.0067 11.0286 41.2151 11.1321C41.4235 11.2356 41.6073 11.3828 41.7538 11.5635C41.9019 11.7423 42.0092 11.9512 42.0685 12.1757C42.1277 12.4002 42.1374 12.6349 42.0968 12.8635L41.8448 14.3344C41.7018 15.1823 41.8289 16.0536 42.2083 16.8253C42.5876 17.5969 43.2 18.2297 43.9587 18.6342L45.2677 19.3342C45.4725 19.443 45.6518 19.594 45.7938 19.7773C45.9359 19.9606 46.0374 20.172 46.0917 20.3974C46.1459 20.6229 46.1517 20.8573 46.1086 21.0851C46.0655 21.313 45.9745 21.5291 45.8417 21.7191L44.9867 22.9381C44.4897 23.6402 44.2262 24.4808 44.2334 25.3409C44.2405 26.2011 44.5181 27.0372 45.0267 27.7309L45.9026 28.9308C46.1514 29.3228 46.2365 29.7967 46.1396 30.2508V30.2518Z" fill="#F42C37" stroke="white" stroke-width="0.349986"/>
<path d="M27.9387 21.6831L22.7987 26.7931L21.1297 25.1131C21.0208 25.0035 20.8914 24.9165 20.7488 24.857C20.6063 24.7975 20.4534 24.7667 20.2989 24.7663C20.1444 24.7659 19.9914 24.7959 19.8485 24.8546C19.7057 24.9133 19.5757 24.9996 19.4662 25.1086C19.3567 25.2175 19.2697 25.3469 19.2102 25.4895C19.1507 25.632 19.1199 25.7849 19.1195 25.9394C19.119 26.0939 19.149 26.2469 19.2078 26.3898C19.2665 26.5326 19.3528 26.6625 19.4617 26.7721L21.9617 29.2851C22.0704 29.3944 22.1997 29.4811 22.3421 29.5403C22.4844 29.5995 22.6371 29.6299 22.7912 29.6299C22.9454 29.6299 23.098 29.5995 23.2404 29.5403C23.3827 29.4811 23.512 29.3944 23.6207 29.2851L29.5947 23.3491C29.7133 23.2425 29.809 23.113 29.8759 22.9683C29.9429 22.8236 29.9797 22.6668 29.9842 22.5075C29.9887 22.3481 29.9608 22.1895 29.9021 22.0413C29.8434 21.8931 29.7551 21.7584 29.6428 21.6453C29.5304 21.5322 29.3962 21.4432 29.2483 21.3836C29.1004 21.324 28.942 21.2951 28.7826 21.2986C28.6233 21.3022 28.4663 21.3381 28.3212 21.4041C28.1761 21.4702 28.046 21.5651 27.9387 21.6831Z" fill="#F42C37" stroke="#F42C37" stroke-width="0.299988"/>
<path d="M33.5795 16.4432C28.5868 11.4506 20.4922 11.4506 15.4995 16.4432C10.5069 21.4359 10.5069 29.5306 15.4995 34.5232C20.4922 39.5159 28.5868 39.5159 33.5795 34.5232C38.5722 29.5306 38.5722 21.4359 33.5795 16.4432Z" stroke="#F42C37" stroke-width="2.09992" stroke-linecap="round" stroke-dasharray="55 10"/>
</g>
</g>
</g>
<defs>
<clipPath id="clip0_1_23">
<rect width="48.58" height="49.55" fill="white" transform="translate(0.25 0.719971)"/>
</clipPath>
<clipPath id="clip1_1_23">
<rect width="48.58" height="49.55" fill="white" transform="translate(0.25 0.719971)"/>
</clipPath>
<clipPath id="clip2_1_23">
<rect width="48.577" height="49.55" fill="white" transform="translate(0.25148 0.719971)"/>
</clipPath>
</defs>
</svg>
